<svg width="80" height="80" version="1.0" xmlns="http://www.w3.org/2000/svg">
  <path
    d="M37.656 63.75v-3.781c0-2.98-.646-8.292-1.937-15.938-.584-3.604-1.542-7.354-2.875-11.25-1.354-3.958-2.771-7.062-4.25-9.312-1.146-1.709-2.51-2.563-4.094-2.563-1.792 0-3.042.688-3.75 2.063-.646 1.27-.969 2.656-.969 4.156 0 3.167 1.136 6.031 3.407 8.594h-5.313c-1.833-2.813-2.75-5.781-2.75-8.907 0-3.27.875-5.833 2.625-7.687 1.812-1.917 4.01-2.875 6.594-2.875 3.333 0 5.937 1.375 7.812 4.125 2.125 3.104 3.896 6.875 5.313 11.313 1 3.229 1.843 6.802 2.531 10.718.687-3.916 1.531-7.49 2.531-10.718 1.334-4.334 3.104-8.105 5.313-11.313 1.875-2.75 4.479-4.125 7.812-4.125 2.584 0 4.781.958 6.594 2.875 1.75 1.854 2.625 4.417 2.625 7.688 0 3.125-.917 6.093-2.75 8.906h-5.313c2.271-2.563 3.407-5.427 3.407-8.594 0-1.5-.323-2.885-.969-4.156-.708-1.375-1.958-2.063-3.75-2.063-1.583 0-2.948.854-4.094 2.563-1.479 2.25-2.896 5.354-4.25 9.312-1.333 3.896-2.291 7.646-2.875 11.25-1.291 7.646-1.937 12.959-1.937 15.938v3.781h-4.688" />
</svg>