<svg width="80" height="80" version="1.0" xmlns="http://www.w3.org/2000/svg">
  <path
    d="M17.39 47.484c1.896 1.209 3.719 2.188 5.469 2.938 4.458 1.938 9.406 2.906 14.843 2.906 3.417 0 6.657-.385 9.72-1.156-.272-.23-.522-.458-.75-.688-.938-.958-1.626-1.979-2.063-3.062a9.431 9.431 0 0 1-.688-3.594c0-1.25.23-2.437.688-3.562a8.644 8.644 0 0 1 2.062-3.063c.98-.937 1.99-1.625 3.032-2.062 1.083-.459 2.27-.688 3.562-.688 1.354 0 2.542.23 3.563.688 1.208.541 2.218 1.229 3.03 2.062.938.959 1.626 1.98 2.063 3.063a9.353 9.353 0 0 1 .688 3.562 9.59 9.59 0 0 1-.688 3.594c-.5 1.25-1.291 2.323-2.375 3.219-1.52 1.25-3.26 2.291-5.218 3.125-5.084 2.166-10.626 3.25-16.626 3.25-6.145 0-11.687-1.084-16.624-3.25a60.421 60.421 0 0 1-3.688-1.782v-5.5m34.094 1.72c.541.228 1.135.343 1.781.343.646 0 1.24-.115 1.781-.344a5.356 5.356 0 0 0 1.532-1.031c.416-.417.76-.927 1.03-1.531.23-.563.344-1.167.345-1.813 0-.625-.115-1.218-.344-1.781a5.09 5.09 0 0 0-1.032-1.531c-.395-.396-.906-.74-1.53-1.032a4.527 4.527 0 0 0-1.782-.343c-.646 0-1.24.114-1.781.343a5.356 5.356 0 0 0-1.531 1.032 5.07 5.07 0 0 0-1.032 1.531 4.674 4.674 0 0 0-.343 1.781c0 .646.114 1.25.343 1.813.23.541.573 1.052 1.032 1.531.395.396.906.74 1.53 1.031M62.61 32.516c-1.896-1.209-3.719-2.188-5.469-2.938-4.458-1.937-9.406-2.906-14.844-2.906-3.416 0-6.656.385-9.719 1.156.271.23.521.459.75.688.938.958 1.625 1.979 2.063 3.062a9.433 9.433 0 0 1 .688 3.594c0 1.25-.23 2.438-.688 3.563a8.644 8.644 0 0 1-2.063 3.062c-.979.938-1.99 1.625-3.03 2.063-1.084.458-2.272.687-3.563.687-1.354 0-2.542-.23-3.563-.688-1.208-.541-2.218-1.229-3.031-2.062-.938-.958-1.625-1.98-2.063-3.063a9.351 9.351 0 0 1-.687-3.562c0-1.25.23-2.448.688-3.594.5-1.25 1.291-2.323 2.375-3.219 1.52-1.25 3.26-2.291 5.218-3.125 5.084-2.166 10.625-3.25 16.625-3.25 6.146 0 11.688 1.084 16.625 3.25 1.271.563 2.5 1.157 3.688 1.782v5.5m-34.094-1.719a4.527 4.527 0 0 0-1.781-.344c-.646 0-1.24.115-1.782.344a5.357 5.357 0 0 0-1.53 1.031c-.417.417-.761.927-1.032 1.532a4.757 4.757 0 0 0-.344 1.812c0 .625.115 1.219.344 1.781.23.542.573 1.052 1.031 1.531.396.396.906.74 1.532 1.032.541.229 1.135.344 1.78.343.647 0 1.24-.114 1.782-.343a5.355 5.355 0 0 0 1.531-1.032c.417-.416.76-.927 1.032-1.53.229-.563.343-1.157.343-1.782 0-.646-.114-1.25-.343-1.813a5.088 5.088 0 0 0-1.032-1.53c-.396-.397-.906-.74-1.531-1.032" />
</svg>