<svg width="80" height="80" version="1.0" xmlns="http://www.w3.org/2000/svg">
  <path
    d="M41.328 49.39a21.142 21.142 0 0 1-1.063-1.78c-1.687-3.167-2.53-6.657-2.53-10.47v-2.624c0-3.709-.22-6.51-.657-8.407-.667-2.916-1.49-4.374-2.469-4.375-1 0-2.385 1.865-4.156 5.594-1.396 2.938-2.094 6.063-2.094 9.375v7.844h-4.687V34.516c0-3.688-.271-6.49-.813-8.407-.833-2.916-2.49-4.374-4.969-4.375h-2.25v-5.937h2.625c3.146 0 5.553 1.417 7.22 4.25.916 1.563 1.53 3.104 1.843 4.625.625-1.854 1.458-3.458 2.5-4.813 2.104-2.708 3.927-4.062 5.469-4.062 1.479 0 3.052 1.417 4.719 4.25.895 1.5 1.458 3.042 1.687 4.625.417 2.896.625 5.385.625 7.469v3.468c0 2.98.396 5.532 1.188 7.657.77-1.688 1.645-3.031 2.625-4.032.937-.958 2.187-1.75 3.75-2.375 1.25-.5 2.697-.75 4.343-.75 1.396 0 2.688.25 3.875.75 1.209.5 2.302 1.24 3.282 2.22a10.178 10.178 0 0 1 2.218 3.312c.5 1.229.75 2.531.75 3.906 0 1.354-.25 2.646-.75 3.875a10.177 10.177 0 0 1-2.218 3.313c-.896.895-1.99 1.635-3.282 2.218-1.104.5-2.5.75-4.187.75-1.709 0-3.313-.25-4.813-.75-1.52-.5-2.927-1.27-4.218-2.312-.355.916-.73 1.781-1.125 2.593-.917 1.834-2.01 3.282-3.282 4.344-1.646 1.375-3.177 2.334-4.593 2.875-1.709.667-3.5 1-5.375 1h-1.75v-4.687h1.75c1.395 0 2.583-.219 3.562-.657 1.208-.52 2.198-1.145 2.969-1.875a10.596 10.596 0 0 0 2.187-2.78c.667-1.21 1.365-2.813 2.094-4.813m5.313-1.219c1.562 1.708 3.072 2.77 4.53 3.188.938.27 1.865.406 2.782.406.98 0 1.77-.136 2.375-.407a6.057 6.057 0 0 0 1.781-1.187c.5-.5.906-1.094 1.219-1.781.27-.604.406-1.302.406-2.094 0-.75-.135-1.458-.406-2.125-.25-.625-.656-1.219-1.219-1.781a6.058 6.058 0 0 0-1.781-1.188 5.134 5.134 0 0 0-2.063-.406c-.708 0-1.447.135-2.218.406-.854.313-1.5.709-1.938 1.188-1.479 1.666-2.635 3.594-3.468 5.781" />
</svg>