<svg width="80" height="80" version="1.0" xmlns="http://www.w3.org/2000/svg">
  <path
    d="M47.468 53.484c-.187.73-.28 1.334-.28 1.813 0 .73.093 1.323.28 1.781.25.542.542.969.875 1.281.375.355.792.636 1.25.844.459.209 1.167.313 2.125.313.855 0 1.605-.146 2.25-.438.813-.354 1.5-.802 2.063-1.344l3.313 3.313c-.917.875-2.126 1.667-3.626 2.375-1.083.52-2.416.781-4 .781-1.604 0-2.895-.219-3.875-.656-1.125-.5-2.062-1.125-2.812-1.875-.833-.833-1.458-1.76-1.875-2.781-.417-1.042-.625-2.24-.625-3.594 0-1.48.219-2.77.656-3.875 1.584-3.896 3.125-6.833 4.625-8.813 1.875-2.479 3.323-5.114 4.344-7.906.458-1.229.687-2.625.688-4.187 0-1.688-.23-3.094-.688-4.219-.438-1.083-1.125-2.104-2.063-3.063-.812-.833-1.822-1.52-3.03-2.062-1.022-.458-2.21-.687-3.563-.688-1.292 0-2.48.23-3.563.688-1.041.438-2.052 1.125-3.031 2.062a8.644 8.644 0 0 0-2.063 3.063 9.432 9.432 0 0 0-.687 3.594c0 1.354.23 2.541.688 3.562.562 1.23 1.364 2.771 2.406 4.625 1.396 2.438 2.093 4.75 2.093 6.938 0 1.25-.229 2.437-.687 3.562-.438 1.084-1.125 2.104-2.063 3.063-.812.833-1.822 1.52-3.03 2.062-1.022.459-2.21.688-3.563.688-1.292 0-2.48-.23-3.563-.688-1.041-.437-2.052-1.125-3.031-2.062a8.644 8.644 0 0 1-2.063-3.063 9.35 9.35 0 0 1-.687-3.562c0-1.271.23-2.469.688-3.594.437-1.083 1.124-2.104 2.062-3.063.812-.833 1.823-1.52 3.031-2.062 1.021-.458 2.209-.687 3.563-.688h.531c-.708-1.604-1.063-3.5-1.063-5.687 0-2.02.344-3.833 1.032-5.438a14.515 14.515 0 0 1 3.093-4.593 14.182 14.182 0 0 1 4.563-3.063c1.625-.687 3.406-1.031 5.344-1.031 2.041 0 3.823.344 5.343 1.031 1.813.813 3.334 1.834 4.563 3.063 1.375 1.375 2.406 2.906 3.094 4.593.687 1.688 1.031 3.709 1.031 6.063 0 2.333-.344 4.323-1.031 5.969-1.292 3.146-2.886 6.041-4.782 8.687-2.145 3.063-3.562 5.823-4.25 8.281M31.782 40.641A4.526 4.526 0 0 0 30 40.297c-.646 0-1.24.115-1.782.344a5.356 5.356 0 0 0-1.53 1.031c-.46.48-.803.99-1.032 1.531a4.757 4.757 0 0 0-.344 1.813c0 .625.115 1.219.344 1.781.23.542.573 1.052 1.031 1.531.459.438.969.782 1.531 1.031.542.23 1.136.344 1.782.344.646 0 1.24-.114 1.781-.344a5.356 5.356 0 0 0 1.531-1.03c.459-.48.802-.99 1.032-1.532.229-.562.343-1.156.343-1.781 0-.646-.114-1.25-.343-1.813a5.088 5.088 0 0 0-1.032-1.531 5.357 5.357 0 0 0-1.531-1.031" />
</svg>