<svg width="80" height="80" version="1.0" xmlns="http://www.w3.org/2000/svg">
  <path
    d="M34.531 47.14H16.688v-4.687h10.75c-.75-.958-1.376-2-1.875-3.125a13.94 13.94 0 0 1-1.157-5.625c0-2.041.386-3.948 1.157-5.719A14.907 14.907 0 0 1 29 23.141a16.204 16.204 0 0 1 5.063-3.25c1.812-.73 3.791-1.094 5.937-1.094 2.25 0 4.23.365 5.938 1.094 1.979.854 3.666 1.937 5.062 3.25a14.908 14.908 0 0 1 3.438 4.843c.77 1.771 1.156 3.678 1.156 5.72 0 1.978-.386 3.853-1.157 5.624a14.81 14.81 0 0 1-1.874 3.125h10.75v4.688H45.436v-4.688a12.634 12.634 0 0 0 2.25-1.594c1.021-.895 1.823-2 2.407-3.312.541-1.23.812-2.52.812-3.875 0-1.375-.27-2.677-.812-3.906-.563-1.23-1.365-2.334-2.407-3.313-.979-.896-2.156-1.635-3.53-2.218-1.188-.5-2.574-.75-4.157-.75-1.5 0-2.885.25-4.156.75-1.313.52-2.49 1.26-3.532 2.218-1.041.98-1.843 2.084-2.406 3.313a9.58 9.58 0 0 0-.812 3.906c0 1.354.27 2.646.812 3.875.563 1.23 1.365 2.333 2.407 3.313a10.955 10.955 0 0 0 2.218 1.593v4.688M16.688 61.203v-4.687h46.624v4.687H16.688" />
</svg>