<svg width="80" height="80" version="1.0" xmlns="http://www.w3.org/2000/svg">
  <path
    d="M44.906 37.64h-9.812c-.25-4.124-1.115-7.968-2.594-11.53-1.354-3.271-3.313-6.417-5.875-9.438h-6.469c3.813 3.708 6.48 7.458 8 11.25a31.31 31.31 0 0 1 2.219 9.719h-9.281v4.687h9.28a31.31 31.31 0 0 1-2.218 9.719c-1.542 3.792-4.208 7.552-8 11.281h6.469c2.542-3.02 4.5-6.177 5.875-9.469 1.5-3.562 2.364-7.406 2.594-11.53h9.812c.23 4.124 1.094 7.968 2.594 11.53 1.375 3.292 3.333 6.448 5.875 9.47h6.469c-3.792-3.73-6.458-7.49-8-11.282a31.307 31.307 0 0 1-2.219-9.719h8.969v-4.687h-8.969c.23-3.396.969-6.636 2.219-9.719 1.52-3.792 4.187-7.542 8-11.25h-6.469c-2.562 3.02-4.52 6.167-5.875 9.437-1.48 3.625-2.344 7.47-2.594 11.532" />
</svg>