<svg width="80" height="80" version="1.0" xmlns="http://www.w3.org/2000/svg">
  <path
    d="M56.938 66.156c-1.605 0-2.896-.219-3.876-.656-1.125-.5-2.062-1.125-2.812-1.875-.833-.833-1.458-1.76-1.875-2.781-.417-1.042-.625-2.25-.625-3.625v-28.75c0-3.709-.219-6.51-.656-8.407-.667-2.916-1.49-4.374-2.469-4.375-1 0-2.385 1.865-4.156 5.594-1.396 2.938-2.094 6.063-2.094 9.375V57.25h-4.688V28.469c0-3.688-.218-6.49-.656-8.407-.646-2.916-1.469-4.374-2.468-4.375-1 0-2.386 1.865-4.157 5.594-1.396 2.938-2.094 6.063-2.093 9.375V57.25h-4.688V28.469c0-4.354-.563-8.219-1.688-11.594-.645-1.937-1.75-3.896-3.312-5.875h4.813c.812.813 1.53 1.813 2.156 3 .708 1.375 1.27 2.917 1.687 4.625.625-1.854 1.459-3.458 2.5-4.813 2.104-2.708 3.823-4.062 5.157-4.062 1.479 0 3.052 1.417 4.718 4.25.646 1.083 1.209 2.625 1.688 4.625.625-1.854 1.458-3.458 2.5-4.813 2.104-2.708 3.927-4.062 5.468-4.062 1.48 0 3.053 1.417 4.72 4.25.895 1.5 1.458 3.042 1.687 4.625.416 2.896.625 5.385.625 7.469V57.25c0 .792.093 1.385.281 1.781.25.542.542.969.875 1.282.375.354.792.635 1.25.843.458.209 1.167.313 2.125.313h1.813v-4.063l6.687 6.407-6.688 6.437v-4.094h-1.75" />
</svg>