<svg width="80" height="80" version="1.0" xmlns="http://www.w3.org/2000/svg">
   <path
      d="M40 9.75C23.329 9.75 9.75 23.329 9.75 40S23.329 70.25 40 70.25 70.25 56.671 70.25 40 56.671 9.75 40 9.75Zm0 6c13.428 0 24.25 10.822 24.25 24.25S53.428 64.25 40 64.25 15.75 53.428 15.75 40 26.572 15.75 40 15.75Z" />
   <path d="M37 10v60h6V10Z" />
   <path d="M10 37v6h60v-6z" />
   <path d="M47.5 12.75a7.5 7.5 0 0 1-7.5 7.5 7.5 7.5 0 0 1-7.5-7.5 7.5 7.5 0 0 1 7.5-7.5 7.5 7.5 0 0 1 7.5 7.5z
      M47.5 12.75a7.5 7.5 0 0 1-7.5 7.5 7.5 7.5 0 0 1-7.5-7.5 7.5 7.5 0 0 1 7.5-7.5 7.5 7.5 0 0 1 7.5 7.5z
      M47.5 12.75a7.5 7.5 0 0 1-7.5 7.5 7.5 7.5 0 0 1-7.5-7.5 7.5 7.5 0 0 1 7.5-7.5 7.5 7.5 0 0 1 7.5 7.5z" />
</svg>