<svg width="80" height="80" version="1.0" xmlns="http://www.w3.org/2000/svg">
  <path
    d="M25.563 27.593a11.1 11.1 0 0 0-2.407-3.562c-.958-.958-2.135-1.75-3.53-2.375-1.21-.542-2.595-.812-4.157-.813v-4.687c2.146 0 4.125.385 5.937 1.156a16.296 16.296 0 0 1 5.063 3.406 15.288 15.288 0 0 1 3.437 5.094 11.098 11.098 0 0 0 2.407 3.563c.958.958 2.135 1.75 3.53 2.375 1.21.541 2.594.812 4.157.812 1.5 0 2.885-.27 4.156-.812a10.986 10.986 0 0 0 3.531-2.375 11.1 11.1 0 0 0 2.407-3.563 15.287 15.287 0 0 1 3.437-5.094 16.295 16.295 0 0 1 5.063-3.406c1.812-.77 3.791-1.156 5.937-1.156v4.688c-1.563 0-2.948.27-4.156.812-1.396.625-2.573 1.417-3.531 2.375a11.099 11.099 0 0 0-2.407 3.563A15.719 15.719 0 0 1 51 32.686c-.73.73-1.677 1.469-2.844 2.219 1.167.75 2.115 1.49 2.844 2.219a15.72 15.72 0 0 1 3.437 5.093c.771 1.876 1.157 3.886 1.157 6.032 0 2.083-.386 4.062-1.157 5.937A15.938 15.938 0 0 1 51 59.281a16.295 16.295 0 0 1-5.063 3.406c-1.812.771-3.791 1.156-5.937 1.157-2.25 0-4.23-.386-5.937-1.157-1.98-.896-3.667-2.031-5.063-3.406a15.936 15.936 0 0 1-3.437-5.094 15.463 15.463 0 0 1-1.157-5.937c0-2.146.386-4.156 1.157-6.032.833-2.02 1.979-3.718 3.437-5.093a17.102 17.102 0 0 1 2.875-2.219A15.57 15.57 0 0 1 29 32.687c-1.458-1.416-2.604-3.114-3.437-5.093m18.593 10.468c-1.27-.541-2.656-.812-4.156-.812-1.5 0-2.885.27-4.156.812a12.834 12.834 0 0 0-3.531 2.375c-1.084 1.125-1.886 2.313-2.407 3.563-.541 1.312-.812 2.729-.812 4.25 0 1.458.27 2.844.812 4.156.521 1.25 1.323 2.438 2.407 3.563 1.062 1 2.24 1.791 3.53 2.374 1.272.542 2.657.813 4.157.813s2.885-.27 4.156-.813a12.834 12.834 0 0 0 3.531-2.375c1.084-1.124 1.886-2.312 2.407-3.562a10.79 10.79 0 0 0 .812-4.156c0-1.521-.27-2.938-.812-4.25-.521-1.25-1.323-2.438-2.407-3.563-1.062-1-2.24-1.791-3.53-2.375" />
</svg>