<svg width="80" height="80" version="1.0" xmlns="http://www.w3.org/2000/svg">
  <path
    d="M52.984 55.469c2.313-2.334 4.084-4.99 5.313-7.969 1.23-3 1.844-6.167 1.844-9.5 0-2.896-.177-5-.532-6.313-.541-2.02-1.291-3.03-2.25-3.03-.541 0-1.302.978-2.28 2.937-1.397 2.791-2.095 5.916-2.095 9.375v14.5m-3.75 8.625c-.895.479-1.812.927-2.75 1.344-2.312 1.02-4.833 1.677-7.562 1.968v-4.719c2.062-.291 3.99-.822 5.781-1.593a26.52 26.52 0 0 0 3.656-1.938c-.041-.479-.062-.979-.062-1.5v-28.75c0-3.708-.219-6.51-.656-8.406-.667-2.917-1.49-4.375-2.469-4.375-1 0-2.385 1.865-4.156 5.594-1.396 2.937-2.094 6.062-2.094 9.375v26.593h-4.688v-28.78c0-3.688-.218-6.49-.656-8.407-.646-2.917-1.469-4.375-2.469-4.375-1 0-2.385 1.865-4.156 5.594-1.396 2.937-2.094 6.062-2.093 9.375v26.593h-4.688v-28.78c0-4.355-.563-8.22-1.688-11.595-.645-1.937-1.75-3.895-3.312-5.875h4.813c.812.813 1.53 1.813 2.156 3 .708 1.376 1.27 2.917 1.687 4.626.625-1.855 1.459-3.459 2.5-4.813 2.104-2.708 3.823-4.062 5.157-4.063 1.479 0 3.052 1.417 4.718 4.25.646 1.084 1.209 2.626 1.688 4.626.625-1.855 1.458-3.459 2.5-4.813 2.104-2.708 3.927-4.062 5.469-4.063 1.479 0 3.052 1.417 4.718 4.25.896 1.5 1.459 3.042 1.688 4.626.312 2.187.52 4.677.625 7.468.416-.854.937-1.656 1.562-2.406 1.521-1.812 2.854-2.719 4-2.719 1.667 0 3.115 1.646 4.344 4.938 1.354 3.625 2.031 7.51 2.031 11.656 0 4.063-.729 7.823-2.187 11.281-1.584 3.75-3.76 6.98-6.532 9.688a33.437 33.437 0 0 1-2.75 2.406c.23.98.532 1.927.907 2.844.812 1.979 2.073 3.843 3.781 5.594h-6.063c-.937-1.5-1.625-2.771-2.062-3.813-.25-.625-.48-1.26-.688-1.906" />
</svg>